<?xml version="1.0" encoding="utf-8"?>
<!-- Generator: Adobe Illustrator 20.1.0, SVG Export Plug-In . SVG Version: 6.00 Build 0)  -->
<svg version="1.1" id="Layer_1" xmlns="http://www.w3.org/2000/svg" xmlns:xlink="http://www.w3.org/1999/xlink" x="0px" y="0px"
	 viewBox="0 0 288 144" style="enable-background:new 0 0 288 144;" xml:space="preserve">
<style type="text/css">
	.st0{fill:#003767;}
	.st1{fill:#003267;stroke:#FFFFFF;stroke-width:0.25;}
	.st2{fill:#FFFFFF;stroke:#FFFFFF;stroke-width:0.25;}
	.st3{fill:none;stroke:#000000;stroke-width:0.1138;}
</style>
<polygon class="st0" points="42.7,44.4 40.7,46.8 47.9,46.8 47.9,46.8 "/>
<polygon class="st0" points="40.3,57.8 39.3,56.4 39.3,55.2 39.9,53.5 40.2,52 40.6,50 40.3,48.2 40.3,47.3 32.7,56.3 40.5,58 "/>
<polygon class="st0" points="70,95.4 68.7,94.3 67.4,93.3 66.5,93 66.2,93.2 65.6,93.1 65.9,91.9 65.5,91.5 64.7,91.4 63.4,91.4 
	62.3,90.7 61.4,89.8 61.2,89.7 41.7,97.5 51,108.7 70.2,95.8 "/>
<polygon class="st0" points="56.3,88.6 55.9,87.8 55.9,86.7 56.1,85.9 55.6,85.4 54.8,85.1 54.7,83.9 54.1,83.3 53,82.3 52.3,81.5 
	51.4,80.2 50.2,79.1 50.1,78.6 50.1,78.6 50.1,78.8 28,81.2 39.1,94.4 56.6,88.7 "/>
<polygon class="st0" points="82.2,98.3 71.3,99.4 71.3,97.5 71.2,97.3 53.1,111.1 62.4,122.2 82.2,98.3 "/>
<polygon class="st0" points="49.6,75.6 48.5,74.8 47.9,73.7 47.9,72.6 47.6,72.2 47.6,71 48.1,70.9 48.9,72 49.1,71 48.7,69.6 
	47.6,69 47.1,69.5 46.8,70.3 45.7,70 45.3,68.9 45.3,68 44.6,67.6 43.8,66.5 43.1,65.3 42.2,64.2 42,62.9 41.9,62.4 29.2,60.4 
	19.9,71.5 24.7,77.2 50.3,76 50.3,75.9 "/>
<path class="st0" d="M92.5,70.1L92.5,70.1l-32.8-5l11,10l21.8-1c-0.1-0.6-0.1-1.2-0.1-1.8C92.4,71.5,92.4,70.8,92.5,70.1z"/>
<path class="st0" d="M58.9,51.7v10.6l33.6,7.7c0-0.1,0-0.2,0.1-0.3c0.1-0.9,0.3-1.9,0.6-2.7l0.1,0l0,0L58.9,51.7z"/>
<path class="st0" d="M95.9,61.1C83.6,46.2,62.6,20.7,62.6,20.7l-5.7,6.8l37.7,35.8c0,0,0,0,0,0c0.4-0.8,0.9-1.5,1.4-2.1L95.9,61.1z"
	/>
<path class="st0" d="M54.5,30.4l-8.6,10.3l11,6h0h2.1v1.2l34.3,18.9c0.3-1.2,0.8-2.3,1.3-3.3L54.5,30.4z"/>
<path class="st0" d="M92.5,74.5c0-0.1,0-0.2,0-0.2c0,0,0-0.1,0-0.1l0,0l0,0l-20.4,2.2h0l5.9,5.4L93,77c0,0,0,0.1,0,0.1l-14,5.6
	l3.7,3.4l0.4,1.2L94,79.8c0,0.1,0,0.1,0.1,0.2l-10.7,8.1l0.6,1.1l0.7,0.4l0.2,0.8l-0.5,0.5l-0.6,0.7l-0.5,0.5V93l-0.2,1.1l-0.9,0.7
	l0.1,1l0.3,0.7l0.5,0.3l0.1,0.3l12.2-14.7C93.9,80.2,92.9,77.4,92.5,74.5z"/>
<path class="st1" d="M92.5,74.5c0-0.1,0-0.2,0-0.2C92.5,74.3,92.5,74.4,92.5,74.5z"/>
<path class="st2" d="M93,77L93,77C93,77,93,77,93,77L93,77C93,77,93,77,93,77z"/>
<polygon class="st2" points="78.1,81.8 79,82.6 79,82.6 "/>
<path class="st2" d="M94,79.8L94,79.8c0,0.1,0,0.1,0.1,0.2l0,0C94,79.9,94,79.9,94,79.8z"/>
<polygon class="st2" points="83.4,88.1 83.4,88 83.4,88.1 "/>
<g>
	<path d="M120.4,77.6c-0.6,0-1-0.2-1.3-0.4c-0.3-0.2-0.7-0.7-1-1.5l-0.9-1.9c-0.1,1.5-0.3,2.9-0.7,4.2h4V77.6z"/>
	<path d="M113.3,65.9h-0.4l-4.8,9.6c-0.4,0.8-0.8,1.4-1.1,1.7c-0.2,0.1-0.5,0.2-1.1,0.3v0.3h4.3v-0.3c-0.7,0-1.1-0.1-1.3-0.3
		c-0.2-0.1-0.3-0.3-0.3-0.5c0-0.2,0.1-0.6,0.3-1l0.9-1.9h5.3l0.8,1.7c0.3,0.5,0.4,0.9,0.4,1.2c0,0.2-0.1,0.3-0.3,0.5
		c-0.2,0.1-0.6,0.2-1.1,0.2v0.3h1.4c0.4-1.3,0.7-2.7,0.7-4.2L113.3,65.9z M110.2,73.3l2.4-4.7l2.3,4.7H110.2z"/>
	<path d="M132.1,65.9v4h-0.4c-0.1-0.8-0.3-1.4-0.6-1.8c-0.3-0.5-0.8-0.8-1.3-1.1c-0.6-0.3-1.2-0.4-1.8-0.4c-0.7,0-1.3,0.2-1.7,0.5
		c-0.5,0.4-0.7,0.8-0.7,1.2c0,0.4,0.1,0.7,0.4,1c0.4,0.4,1.4,1,3,1.7c1.3,0.6,2.1,1,2.6,1.3c0.5,0.3,0.8,0.7,1.1,1.1
		c0.3,0.4,0.4,0.9,0.4,1.3c0,0.9-0.4,1.6-1.2,2.3c-0.8,0.6-1.8,1-3.1,1c-0.4,0-0.8,0-1.1-0.1c-0.2,0-0.6-0.1-1.3-0.3
		c-0.7-0.2-1.1-0.3-1.2-0.3c-0.2,0-0.3,0-0.4,0.1c-0.1,0.1-0.2,0.3-0.2,0.5H124v-4h0.4c0.2,0.8,0.4,1.5,0.7,1.9
		c0.3,0.4,0.7,0.8,1.3,1c0.6,0.3,1.3,0.4,2,0.4c0.8,0,1.5-0.2,2-0.6c0.5-0.4,0.7-0.8,0.7-1.3c0-0.3-0.1-0.6-0.3-0.9
		c-0.2-0.3-0.5-0.6-0.9-0.8c-0.3-0.2-1-0.5-2.1-1.1c-1.2-0.6-2-1-2.5-1.3c-0.5-0.3-0.9-0.7-1.1-1.1c-0.3-0.4-0.4-0.8-0.4-1.3
		c0-0.8,0.4-1.6,1.1-2.2c0.8-0.6,1.7-0.9,2.9-0.9c0.7,0,1.5,0.2,2.3,0.5c0.4,0.1,0.6,0.2,0.8,0.2c0.2,0,0.3,0,0.4-0.1
		c0.1-0.1,0.2-0.3,0.3-0.5H132.1z"/>
	<path d="M145.6,65.9v4h-0.4c-0.1-0.8-0.3-1.4-0.6-1.8c-0.3-0.5-0.8-0.8-1.3-1.1c-0.6-0.3-1.2-0.4-1.8-0.4c-0.7,0-1.3,0.2-1.7,0.5
		c-0.5,0.4-0.7,0.8-0.7,1.2c0,0.4,0.1,0.7,0.4,1c0.4,0.4,1.4,1,3,1.7c1.3,0.6,2.1,1,2.6,1.3c0.5,0.3,0.8,0.7,1.1,1.1
		c0.3,0.4,0.4,0.9,0.4,1.3c0,0.9-0.4,1.6-1.2,2.3c-0.8,0.6-1.8,1-3.1,1c-0.4,0-0.8,0-1.1-0.1c-0.2,0-0.6-0.1-1.3-0.3
		c-0.7-0.2-1.1-0.3-1.2-0.3c-0.2,0-0.3,0-0.4,0.1c-0.1,0.1-0.2,0.3-0.2,0.5h-0.4v-4h0.4c0.2,0.8,0.4,1.5,0.7,1.9
		c0.3,0.4,0.7,0.8,1.3,1c0.6,0.3,1.3,0.4,2,0.4c0.8,0,1.5-0.2,2-0.6c0.5-0.4,0.7-0.8,0.7-1.3c0-0.3-0.1-0.6-0.3-0.9
		c-0.2-0.3-0.5-0.6-0.9-0.8c-0.3-0.2-1-0.5-2.1-1.1c-1.2-0.6-2-1-2.5-1.3c-0.5-0.3-0.9-0.7-1.1-1.1c-0.3-0.4-0.4-0.8-0.4-1.3
		c0-0.8,0.4-1.6,1.1-2.2c0.8-0.6,1.7-0.9,2.9-0.9c0.7,0,1.5,0.2,2.3,0.5c0.4,0.1,0.6,0.2,0.8,0.2c0.2,0,0.3,0,0.4-0.1
		c0.1-0.1,0.2-0.3,0.3-0.5H145.6z"/>
	<path d="M160.1,67.7c0.9,1,1.4,2.5,1.4,4.5c0,1.8-0.4,3.2-1.2,4.1c-0.8,0.9-1.9,1.3-3.2,1.3c-1.2,0-2.2-0.4-2.9-1.2
		c-0.9-1-1.4-2.5-1.4-4.4c0-1.9,0.5-3.3,1.4-4.3c0.7-0.8,1.7-1.2,2.9-1.2C158.3,66.5,159.3,66.9,160.1,67.7z M152.6,67.5
		c-1.5,1.2-2.2,2.7-2.2,4.5c0,1.8,0.6,3.3,1.9,4.4c1.3,1.1,2.9,1.7,4.7,1.7c1.9,0,3.4-0.6,4.7-1.8c1.3-1.2,2-2.6,2-4.4
		c0-1.7-0.6-3.2-1.9-4.3c-1.3-1.2-2.8-1.7-4.6-1.7C155.4,65.9,153.9,66.4,152.6,67.5z"/>
	<path d="M179,65.9l0.3,4H179c-0.4-1.2-1-2.1-1.8-2.6c-0.8-0.5-1.7-0.8-2.8-0.8c-0.9,0-1.7,0.2-2.5,0.6c-0.7,0.4-1.3,1-1.7,1.9
		c-0.4,0.9-0.6,1.9-0.6,3.2c0,1.1,0.2,2,0.6,2.8c0.4,0.8,1,1.4,1.8,1.8c0.8,0.4,1.7,0.6,2.7,0.6c0.9,0,1.7-0.2,2.3-0.5
		c0.7-0.3,1.4-1,2.2-1.9l0.3,0.2c-0.7,1-1.5,1.8-2.4,2.3c-0.9,0.5-2,0.7-3.2,0.7c-2.3,0-4-0.7-5.2-2.2c-0.9-1.1-1.4-2.3-1.4-3.8
		c0-1.2,0.3-2.2,0.9-3.2c0.6-1,1.4-1.7,2.5-2.3c1.1-0.5,2.2-0.8,3.5-0.8c1,0,2,0.2,2.9,0.6c0.3,0.1,0.5,0.2,0.6,0.2
		c0.2,0,0.3-0.1,0.5-0.2c0.2-0.2,0.3-0.4,0.4-0.7H179z"/>
	<path d="M188.7,77.6v0.3h-5.8v-0.3h0.5c0.6,0,1-0.1,1.2-0.4c0.2-0.2,0.2-0.6,0.2-1.3v-7.6c0-0.6,0-1-0.1-1.2
		c-0.1-0.1-0.2-0.3-0.4-0.4c-0.3-0.1-0.6-0.2-0.9-0.2h-0.5v-0.3h5.8v0.3h-0.5c-0.6,0-1,0.1-1.2,0.4c-0.2,0.2-0.2,0.6-0.2,1.3v7.6
		c0,0.6,0,1,0.1,1.2c0.1,0.1,0.2,0.3,0.4,0.4c0.3,0.1,0.6,0.2,0.9,0.2H188.7z"/>
	<path d="M195.8,73.3l2.4-4.7l2.3,4.7H195.8z M201.5,75.7c0.3,0.5,0.4,0.9,0.4,1.2c0,0.2-0.1,0.3-0.3,0.5c-0.2,0.1-0.6,0.2-1.1,0.2
		v0.3h5.4v-0.3c-0.6,0-1-0.2-1.3-0.4c-0.3-0.2-0.7-0.7-1-1.5l-4.7-9.7h-0.4l-4.8,9.6c-0.4,0.8-0.8,1.4-1.1,1.7
		c-0.2,0.1-0.5,0.2-1.1,0.3v0.3h4.3v-0.3c-0.7,0-1.1-0.1-1.3-0.3c-0.2-0.1-0.3-0.3-0.3-0.5c0-0.2,0.1-0.6,0.3-1l0.9-1.9h5.3
		L201.5,75.7z"/>
	<path d="M217.9,66.2l0.1,2.7h-0.4c-0.1-0.5-0.2-0.8-0.3-1c-0.2-0.3-0.5-0.6-0.8-0.7c-0.3-0.2-0.8-0.2-1.4-0.2h-1.9v9
		c0,0.7,0.1,1.2,0.3,1.3c0.3,0.2,0.7,0.4,1.2,0.4h0.5v0.3h-5.9v-0.3h0.5c0.6,0,1-0.1,1.2-0.5c0.1-0.2,0.2-0.6,0.2-1.2v-9h-1.6
		c-0.6,0-1.1,0-1.4,0.1c-0.3,0.1-0.6,0.3-0.9,0.6c-0.2,0.3-0.4,0.7-0.4,1.3h-0.4l0.1-2.7H217.9z"/>
	<path d="M226.9,77.6v0.3h-5.9v-0.3h0.5c0.6,0,1-0.1,1.2-0.4c0.2-0.2,0.2-0.6,0.2-1.3v-7.6c0-0.6,0-1-0.1-1.2
		c-0.1-0.1-0.2-0.3-0.4-0.4c-0.3-0.1-0.6-0.2-0.9-0.2h-0.5v-0.3h5.9v0.3h-0.5c-0.6,0-1,0.1-1.2,0.4c-0.2,0.2-0.3,0.6-0.3,1.3v7.6
		c0,0.6,0,1,0.1,1.2c0.1,0.1,0.2,0.3,0.4,0.4c0.3,0.1,0.6,0.2,0.9,0.2H226.9z"/>
	<path d="M239.9,67.7c0.9,1,1.4,2.5,1.4,4.5c0,1.8-0.4,3.2-1.2,4.1c-0.8,0.9-1.9,1.3-3.2,1.3c-1.2,0-2.2-0.4-2.9-1.2
		c-0.9-1-1.4-2.5-1.4-4.4c0-1.9,0.5-3.3,1.4-4.3c0.7-0.8,1.7-1.2,2.9-1.2C238.2,66.5,239.2,66.9,239.9,67.7z M232.5,67.5
		c-1.5,1.2-2.2,2.7-2.2,4.5c0,1.8,0.6,3.3,1.9,4.4c1.3,1.1,2.8,1.7,4.7,1.7c1.9,0,3.4-0.6,4.7-1.8c1.3-1.2,2-2.6,2-4.4
		c0-1.7-0.6-3.2-1.9-4.3c-1.3-1.2-2.8-1.7-4.6-1.7C235.3,65.9,233.7,66.4,232.5,67.5z"/>
	<path d="M246.2,66.2h3.7l8.3,8.7v-6.7c0-0.7-0.1-1.2-0.3-1.3c-0.3-0.2-0.6-0.4-1.2-0.4h-0.5v-0.3h4.8v0.3h-0.5
		c-0.6,0-1,0.1-1.2,0.4c-0.1,0.2-0.2,0.6-0.2,1.2v9.9h-0.4l-9-9.4v7.2c0,0.7,0.1,1.2,0.3,1.3c0.3,0.2,0.7,0.4,1.2,0.4h0.5v0.3h-4.8
		v-0.3h0.5c0.6,0,1-0.1,1.3-0.5c0.1-0.2,0.2-0.6,0.2-1.2v-8.2c-0.4-0.4-0.7-0.6-0.9-0.8c-0.2-0.1-0.5-0.2-0.9-0.3
		c-0.2-0.1-0.5-0.1-0.9-0.1V66.2z"/>
	<path d="M116.1,93c0.9,1,1.4,2.5,1.4,4.5c0,1.8-0.4,3.2-1.2,4.1c-0.8,0.9-1.9,1.3-3.2,1.3c-1.2,0-2.2-0.4-2.9-1.2
		c-0.9-1-1.4-2.5-1.4-4.4c0-1.9,0.5-3.3,1.4-4.3c0.7-0.8,1.7-1.2,2.9-1.2C114.4,91.8,115.4,92.2,116.1,93z M108.7,92.7
		c-1.5,1.2-2.2,2.7-2.2,4.5c0,1.8,0.6,3.3,1.9,4.4c1.3,1.1,2.9,1.7,4.7,1.7c1.9,0,3.4-0.6,4.7-1.8c1.3-1.2,2-2.6,2-4.4
		c0-1.7-0.6-3.2-1.9-4.3c-1.3-1.2-2.8-1.7-4.6-1.7C111.5,91.2,109.9,91.7,108.7,92.7z"/>
	<path d="M126.8,92.1v4.6h2.5c0.6,0,1-0.1,1.2-0.3c0.3-0.2,0.4-0.6,0.5-1.3h0.4v4h-0.4c0-0.5-0.1-0.8-0.2-1
		c-0.1-0.2-0.3-0.4-0.5-0.5c-0.2-0.1-0.6-0.2-1-0.2h-2.5v3.7c0,0.6,0,1,0.1,1.2c0.1,0.1,0.2,0.3,0.4,0.4c0.3,0.1,0.6,0.2,0.9,0.2
		h0.5v0.3H123v-0.3h0.5c0.6,0,1-0.1,1.2-0.4c0.2-0.2,0.2-0.6,0.2-1.3v-7.6c0-0.6,0-1-0.1-1.2c-0.1-0.1-0.2-0.3-0.4-0.4
		c-0.3-0.1-0.6-0.2-0.9-0.2H123v-0.3h10.2l0.1,2.6h-0.4c-0.2-0.5-0.4-0.9-0.6-1.2c-0.2-0.3-0.5-0.4-0.9-0.6
		c-0.3-0.1-0.9-0.2-1.6-0.2H126.8z"/>
	<path d="M147.6,92.3c0.7-0.1,1.2-0.2,1.6-0.2c0.9,0,1.6,0.2,2.1,0.7c0.5,0.5,0.8,1,0.8,1.8c0,0.7-0.3,1.4-1,1.8
		c-0.7,0.5-1.6,0.7-2.9,0.7c-0.1,0-0.1,0-0.2,0c-0.1,0-0.2,0-0.3,0V92.3z M157.3,102.8c-0.7-0.1-1.3-0.2-1.8-0.5
		c-0.5-0.3-1-0.8-1.7-1.5l-2.8-3.4c1.1-0.2,2-0.6,2.5-1.1c0.5-0.5,0.8-1.2,0.8-1.9c0-0.7-0.2-1.3-0.7-1.7c-0.5-0.5-1.1-0.8-1.8-1
		c-0.7-0.2-1.8-0.3-3.2-0.3h-5v0.3h0.5c0.5,0,0.9,0.1,1.2,0.4c0.2,0.2,0.3,0.6,0.3,1.4v7.6c0,0.7-0.1,1.1-0.2,1.3
		c-0.2,0.3-0.7,0.5-1.2,0.5h-0.5v0.3h5.9v-0.3H149c-0.5,0-0.9-0.1-1.1-0.4c-0.2-0.2-0.3-0.6-0.3-1.4v-3.4c0.1,0,0.2,0,0.3,0
		c0.1,0,0.2,0,0.3,0c0.2,0,0.5,0,0.8,0l4.6,5.5h3.7V102.8z"/>
	<path d="M163.4,92.1v4.6h3c0.8,0,1.3-0.1,1.5-0.3c0.3-0.3,0.5-0.7,0.6-1.4h0.4v4.1h-0.4c-0.1-0.6-0.2-0.9-0.3-1.1
		c-0.1-0.2-0.3-0.4-0.6-0.5c-0.3-0.1-0.7-0.2-1.3-0.2h-3v3.8c0,0.5,0,0.8,0.1,0.9c0.1,0.1,0.1,0.2,0.3,0.3c0.1,0.1,0.4,0.1,0.8,0.1
		h2.3c0.8,0,1.3,0,1.7-0.1c0.3-0.1,0.7-0.3,1-0.5c0.4-0.3,0.8-0.9,1.3-1.6h0.4l-1.2,2.9h-10.5v-0.3h0.5c0.3,0,0.6-0.1,0.9-0.2
		c0.2-0.1,0.4-0.2,0.4-0.4c0.1-0.2,0.1-0.6,0.1-1.1v-7.6c0-0.8-0.1-1.2-0.3-1.4c-0.2-0.2-0.6-0.4-1.2-0.4h-0.5v-0.3h10.5l0.1,2.6
		h-0.4c-0.1-0.6-0.3-1-0.5-1.2c-0.2-0.2-0.4-0.4-0.8-0.5c-0.3-0.1-0.7-0.1-1.4-0.1H163.4z"/>
	<path d="M178.3,98.6l2.4-4.7l2.3,4.7H178.3z M184,100.9c0.3,0.5,0.4,0.9,0.4,1.2c0,0.2-0.1,0.3-0.3,0.5c-0.2,0.1-0.6,0.2-1.1,0.2
		v0.3h5.4v-0.3c-0.6,0-1-0.2-1.3-0.4c-0.3-0.2-0.7-0.7-1-1.5l-4.7-9.7H181l-4.8,9.6c-0.4,0.8-0.8,1.4-1.1,1.7
		c-0.2,0.1-0.5,0.2-1.1,0.3v0.3h4.3v-0.3c-0.7,0-1.1-0.1-1.3-0.3c-0.2-0.1-0.3-0.3-0.3-0.5c0-0.2,0.1-0.6,0.3-1l0.9-1.9h5.3
		L184,100.9z"/>
	<path d="M202.5,99.9l0.3,0.1l-1.2,3.2h-10.6v-0.3h0.5c0.6,0,1-0.2,1.2-0.5c0.1-0.2,0.2-0.6,0.2-1.3v-7.6c0-0.7-0.1-1.2-0.3-1.4
		c-0.3-0.3-0.7-0.4-1.2-0.4h-0.5v-0.3h6.2v0.3c-0.7,0-1.2,0.1-1.5,0.2c-0.3,0.1-0.5,0.3-0.6,0.4c-0.1,0.2-0.2,0.6-0.2,1.3v7.4
		c0,0.5,0.1,0.8,0.2,1c0.1,0.1,0.2,0.2,0.4,0.3c0.2,0.1,0.7,0.1,1.6,0.1h1c1,0,1.8-0.1,2.2-0.2c0.4-0.1,0.8-0.4,1.2-0.7
		C201.8,101.2,202.2,100.7,202.5,99.9z"/>
	<path d="M215.4,91.4l0.1,2.7h-0.4c-0.1-0.5-0.2-0.8-0.3-1c-0.2-0.3-0.5-0.6-0.8-0.7c-0.3-0.2-0.8-0.2-1.4-0.2h-1.9v9
		c0,0.7,0.1,1.2,0.3,1.3c0.3,0.2,0.7,0.4,1.2,0.4h0.5v0.3h-5.8v-0.3h0.5c0.6,0,1-0.1,1.2-0.5c0.2-0.2,0.2-0.6,0.2-1.2v-9h-1.6
		c-0.6,0-1.1,0-1.4,0.1c-0.3,0.1-0.6,0.3-0.9,0.6c-0.2,0.3-0.4,0.7-0.4,1.3h-0.4l0.1-2.7H215.4z"/>
	<path d="M228.1,93c0.9,1,1.4,2.5,1.4,4.5c0,1.8-0.4,3.2-1.2,4.1c-0.8,0.9-1.9,1.3-3.2,1.3c-1.2,0-2.2-0.4-2.9-1.2
		c-0.9-1-1.4-2.5-1.4-4.4c0-1.9,0.5-3.3,1.4-4.3c0.7-0.8,1.7-1.2,2.9-1.2C226.4,91.8,227.4,92.2,228.1,93z M220.7,92.7
		c-1.5,1.2-2.2,2.7-2.2,4.5c0,1.8,0.6,3.3,1.9,4.4c1.3,1.1,2.8,1.7,4.7,1.7c1.9,0,3.4-0.6,4.7-1.8c1.3-1.2,2-2.6,2-4.4
		c0-1.7-0.6-3.2-1.9-4.3c-1.3-1.2-2.8-1.7-4.6-1.7C223.5,91.2,222,91.7,220.7,92.7z"/>
	<path d="M238.9,92.3c0.7-0.1,1.2-0.2,1.6-0.2c0.9,0,1.6,0.2,2.1,0.7c0.5,0.5,0.8,1,0.8,1.8c0,0.7-0.3,1.4-1,1.8
		c-0.7,0.5-1.6,0.7-2.9,0.7c-0.1,0-0.1,0-0.2,0c-0.1,0-0.2,0-0.3,0V92.3z M248.6,102.8c-0.7-0.1-1.3-0.2-1.8-0.5
		c-0.5-0.3-1-0.8-1.7-1.5l-2.8-3.4c1.1-0.2,2-0.6,2.5-1.1c0.5-0.5,0.8-1.2,0.8-1.9c0-0.7-0.2-1.3-0.7-1.7c-0.5-0.5-1.1-0.8-1.7-1
		c-0.7-0.2-1.8-0.3-3.2-0.3h-5v0.3h0.5c0.5,0,0.9,0.1,1.2,0.4c0.2,0.2,0.3,0.6,0.3,1.4v7.6c0,0.7-0.1,1.1-0.2,1.3
		c-0.2,0.3-0.7,0.5-1.2,0.5H235v0.3h5.9v-0.3h-0.5c-0.5,0-0.9-0.1-1.1-0.4c-0.2-0.2-0.3-0.6-0.3-1.4v-3.4c0.1,0,0.2,0,0.3,0
		c0.1,0,0.2,0,0.3,0c0.2,0,0.5,0,0.8,0l4.6,5.5h3.7V102.8z"/>
	<path d="M259.9,91.2v4h-0.4c-0.1-0.8-0.3-1.4-0.6-1.8c-0.3-0.5-0.8-0.8-1.3-1.1c-0.6-0.3-1.2-0.4-1.8-0.4c-0.7,0-1.3,0.2-1.7,0.5
		c-0.5,0.4-0.7,0.8-0.7,1.2c0,0.4,0.1,0.7,0.4,1c0.4,0.4,1.4,1,3,1.7c1.3,0.6,2.1,1,2.6,1.3c0.5,0.3,0.8,0.7,1.1,1.1
		c0.3,0.4,0.4,0.9,0.4,1.3c0,0.9-0.4,1.6-1.2,2.3c-0.8,0.6-1.8,1-3.1,1c-0.4,0-0.8,0-1.1-0.1c-0.2,0-0.6-0.1-1.3-0.3
		c-0.7-0.2-1.1-0.3-1.2-0.3c-0.2,0-0.3,0-0.4,0.1c-0.1,0.1-0.2,0.3-0.2,0.5h-0.4v-4h0.4c0.2,0.8,0.4,1.5,0.7,1.9
		c0.3,0.4,0.7,0.8,1.4,1c0.6,0.3,1.3,0.4,2,0.4c0.8,0,1.5-0.2,2-0.6c0.5-0.4,0.7-0.8,0.7-1.4c0-0.3-0.1-0.6-0.3-0.9
		c-0.2-0.3-0.5-0.6-0.9-0.8c-0.3-0.2-1-0.5-2.1-1.1c-1.2-0.6-2-1-2.5-1.3c-0.5-0.3-0.9-0.7-1.1-1.1c-0.3-0.4-0.4-0.8-0.4-1.3
		c0-0.8,0.4-1.6,1.1-2.2c0.8-0.6,1.7-0.9,2.9-0.9c0.7,0,1.5,0.2,2.3,0.5c0.4,0.1,0.6,0.2,0.8,0.2c0.2,0,0.3,0,0.4-0.1
		c0.1-0.1,0.2-0.3,0.3-0.5H259.9z"/>
	<g>
		<path d="M268.3,90.4c-0.2,0-0.3-0.1-0.4-0.1c-0.1-0.1-0.3-0.2-0.4-0.5l-0.7-1c0.3-0.1,0.5-0.2,0.6-0.3c0.1-0.2,0.2-0.4,0.2-0.6
			c0-0.2-0.1-0.4-0.2-0.5c-0.1-0.2-0.3-0.3-0.4-0.3c-0.2-0.1-0.4-0.1-0.8-0.1h-1.2V87h0.1c0.1,0,0.2,0,0.3,0.1
			c0,0.1,0.1,0.2,0.1,0.4v2.3c0,0.2,0,0.3-0.1,0.4c-0.1,0.1-0.2,0.1-0.3,0.1h-0.1v0.1h1.4v-0.1h-0.1c-0.1,0-0.2,0-0.3-0.1
			c0-0.1-0.1-0.2-0.1-0.4v-1.1c0,0,0.1,0,0.1,0c0,0,0,0,0.1,0c0.1,0,0.1,0,0.2,0l1.1,1.7h0.9V90.4z M265.9,87.1
			c0.2,0,0.3-0.1,0.4-0.1c0.2,0,0.4,0.1,0.5,0.2c0.1,0.1,0.2,0.3,0.2,0.6c0,0.2-0.1,0.4-0.2,0.6c-0.2,0.2-0.4,0.2-0.7,0.2
			c0,0,0,0-0.1,0c0,0-0.1,0-0.1,0V87.1z"/>
		<ellipse class="st3" cx="266.4" cy="88.7" rx="2.6" ry="2.7"/>
	</g>
	<path d="M119.1,41.2l0.3,4h-0.3c-0.4-1.2-1.1-2.1-1.9-2.6c-0.8-0.5-1.8-0.8-3-0.8c-1,0-1.9,0.2-2.7,0.6c-0.8,0.4-1.4,1-1.9,1.9
		c-0.5,0.9-0.7,1.9-0.7,3.2c0,1.1,0.2,2,0.6,2.8c0.4,0.8,1.1,1.4,1.9,1.8c0.9,0.4,1.8,0.6,2.9,0.6c1,0,1.8-0.2,2.5-0.5
		c0.7-0.3,1.5-1,2.4-1.9l0.3,0.2c-0.7,1-1.6,1.8-2.6,2.3c-1,0.5-2.2,0.7-3.5,0.7c-2.4,0-4.3-0.7-5.7-2.2c-1-1.1-1.5-2.3-1.5-3.8
		c0-1.2,0.3-2.2,1-3.2c0.7-1,1.6-1.7,2.7-2.3c1.2-0.5,2.4-0.8,3.8-0.8c1.1,0,2.1,0.2,3.1,0.6c0.3,0.1,0.5,0.2,0.7,0.2
		c0.2,0,0.4-0.1,0.5-0.2c0.2-0.2,0.3-0.4,0.4-0.7H119.1z"/>
	<path d="M127.6,48.6l2.6-4.7l2.4,4.7H127.6z M133.8,50.9c0.3,0.5,0.4,0.9,0.4,1.2c0,0.2-0.1,0.3-0.3,0.5c-0.2,0.1-0.6,0.2-1.2,0.2
		v0.3h5.8v-0.3c-0.6,0-1.1-0.2-1.4-0.4c-0.3-0.2-0.7-0.7-1.1-1.5l-5.1-9.8h-0.4l-5.2,9.6c-0.4,0.9-0.9,1.4-1.2,1.7
		c-0.2,0.1-0.6,0.3-1.2,0.3v0.3h4.6v-0.3c-0.7,0-1.2-0.1-1.4-0.3c-0.2-0.1-0.3-0.3-0.3-0.5c0-0.2,0.1-0.6,0.4-1l1-1.9h5.7
		L133.8,50.9z"/>
	<path d="M153.8,49.9l0.4,0.1l-1.3,3.2h-11.4v-0.3h0.5c0.6,0,1.1-0.2,1.3-0.5c0.1-0.2,0.2-0.6,0.2-1.3v-7.6c0-0.7-0.1-1.2-0.3-1.4
		c-0.3-0.3-0.7-0.4-1.2-0.4h-0.5v-0.3h6.6v0.3c-0.8,0-1.3,0.1-1.6,0.2c-0.3,0.1-0.5,0.3-0.6,0.4c-0.1,0.2-0.2,0.6-0.2,1.3v7.4
		c0,0.5,0.1,0.8,0.2,1c0.1,0.1,0.2,0.2,0.4,0.3c0.2,0.1,0.7,0.1,1.7,0.1h1.1c1.1,0,1.9-0.1,2.4-0.2c0.5-0.1,0.9-0.4,1.2-0.7
		C153,51.2,153.4,50.6,153.8,49.9z"/>
	<path d="M163.7,52.8v0.3h-6.3v-0.3h0.5c0.6,0,1-0.1,1.3-0.4c0.2-0.2,0.3-0.6,0.3-1.3v-7.6c0-0.6,0-1-0.1-1.2
		c-0.1-0.1-0.2-0.3-0.4-0.4c-0.3-0.1-0.6-0.2-1-0.2h-0.5v-0.3h6.3v0.3h-0.5c-0.6,0-1,0.1-1.3,0.4c-0.2,0.2-0.3,0.6-0.3,1.3v7.6
		c0,0.6,0,1,0.1,1.2c0.1,0.1,0.2,0.3,0.5,0.4c0.3,0.1,0.6,0.2,1,0.2H163.7z"/>
	<path d="M171.1,42.1v4.6h2.7c0.6,0,1.1-0.1,1.3-0.3c0.3-0.2,0.5-0.6,0.6-1.3h0.4v4h-0.4c0-0.5-0.1-0.8-0.2-1
		c-0.1-0.2-0.3-0.4-0.6-0.5c-0.2-0.1-0.6-0.2-1.1-0.2h-2.7v3.7c0,0.6,0,1,0.1,1.2c0.1,0.1,0.2,0.3,0.5,0.4c0.3,0.1,0.6,0.2,1,0.2
		h0.5v0.3h-6.3v-0.3h0.5c0.6,0,1-0.1,1.3-0.4c0.2-0.2,0.3-0.6,0.3-1.3v-7.6c0-0.6,0-1-0.1-1.2c-0.1-0.1-0.2-0.3-0.4-0.4
		c-0.3-0.1-0.6-0.2-1-0.2h-0.5v-0.3h10.9L178,44h-0.4c-0.2-0.5-0.4-0.9-0.7-1.2c-0.3-0.3-0.6-0.4-0.9-0.6c-0.4-0.1-0.9-0.2-1.7-0.2
		H171.1z"/>
	<path d="M192.3,43c1,1,1.5,2.5,1.5,4.5c0,1.9-0.5,3.2-1.3,4.1c-0.9,0.9-2,1.3-3.4,1.3c-1.3,0-2.3-0.4-3.1-1.2c-1-1-1.5-2.5-1.5-4.4
		c0-1.9,0.5-3.3,1.5-4.3c0.8-0.8,1.8-1.2,3.2-1.2C190.4,41.8,191.5,42.2,192.3,43z M184.3,42.7c-1.6,1.2-2.4,2.7-2.4,4.6
		c0,1.8,0.7,3.3,2.1,4.4c1.4,1.1,3.1,1.7,5.1,1.7c2,0,3.7-0.6,5.1-1.8c1.4-1.2,2.1-2.6,2.1-4.4c0-1.7-0.7-3.2-2.1-4.3
		c-1.4-1.2-3-1.7-5-1.7C187.3,41.2,185.6,41.7,184.3,42.7z"/>
	<path d="M204,42.3c0.7-0.1,1.3-0.2,1.7-0.2c0.9,0,1.7,0.2,2.3,0.7c0.6,0.5,0.9,1.1,0.9,1.8c0,0.8-0.4,1.4-1.1,1.9
		c-0.7,0.5-1.8,0.7-3.2,0.7c-0.1,0-0.1,0-0.2,0c-0.1,0-0.2,0-0.4,0V42.3z M214.4,52.8c-0.8-0.1-1.5-0.2-2-0.5
		c-0.5-0.3-1.1-0.8-1.8-1.5l-3-3.3c1.2-0.2,2.2-0.6,2.7-1.1c0.6-0.5,0.9-1.2,0.9-1.9c0-0.7-0.3-1.3-0.8-1.7c-0.5-0.5-1.1-0.8-1.9-1
		c-0.7-0.2-1.9-0.3-3.4-0.3h-5.4v0.3h0.5c0.6,0,1,0.1,1.2,0.4c0.2,0.2,0.3,0.6,0.3,1.4v7.6c0,0.7-0.1,1.1-0.2,1.3
		c-0.3,0.3-0.7,0.5-1.3,0.5h-0.5v0.3h6.3v-0.3h-0.6c-0.5,0-1-0.1-1.2-0.4c-0.2-0.2-0.3-0.6-0.3-1.4v-3.4c0.1,0,0.2,0,0.3,0
		s0.2,0,0.3,0c0.2,0,0.5,0,0.9,0l5,5.5h3.9V52.8z"/>
	<path d="M216.1,41.4h4l9,8.8v-6.7c0-0.7-0.1-1.1-0.3-1.3c-0.3-0.2-0.7-0.4-1.3-0.4H227v-0.3h5.1v0.3h-0.5c-0.6,0-1.1,0.2-1.3,0.4
		c-0.2,0.2-0.2,0.6-0.2,1.2v9.9h-0.4l-9.7-9.4v7.2c0,0.7,0.1,1.2,0.3,1.3c0.3,0.2,0.7,0.4,1.3,0.4h0.5v0.3h-5.1v-0.3h0.5
		c0.6,0,1.1-0.1,1.3-0.4c0.2-0.2,0.2-0.6,0.2-1.3V43c-0.4-0.4-0.8-0.7-1-0.8c-0.2-0.1-0.5-0.2-1-0.4c-0.2-0.1-0.5-0.1-1-0.1V41.4z"
		/>
	<path d="M241.6,52.8v0.3h-6.3v-0.3h0.5c0.6,0,1-0.1,1.3-0.4c0.2-0.2,0.3-0.6,0.3-1.3v-7.6c0-0.6,0-1-0.1-1.2
		c-0.1-0.1-0.2-0.3-0.4-0.4c-0.3-0.1-0.6-0.2-1-0.2h-0.5v-0.3h6.3v0.3H241c-0.6,0-1,0.1-1.3,0.4c-0.2,0.2-0.3,0.6-0.3,1.3v7.6
		c0,0.6,0,1,0.1,1.2c0.1,0.1,0.2,0.3,0.5,0.4c0.3,0.1,0.6,0.2,1,0.2H241.6z"/>
	<path d="M249.2,48.6l2.6-4.7l2.4,4.7H249.2z M255.4,50.9c0.3,0.5,0.4,0.9,0.4,1.2c0,0.2-0.1,0.3-0.3,0.5c-0.2,0.1-0.6,0.2-1.2,0.2
		v0.3h5.8v-0.3c-0.6,0-1.1-0.2-1.4-0.4c-0.3-0.2-0.7-0.7-1.1-1.5l-5.1-9.8h-0.4l-5.2,9.6c-0.4,0.9-0.9,1.4-1.2,1.7
		c-0.2,0.1-0.6,0.3-1.2,0.3v0.3h4.6v-0.3c-0.7,0-1.2-0.1-1.4-0.3c-0.2-0.1-0.3-0.3-0.3-0.5c0-0.2,0.1-0.6,0.4-1l1-1.9h5.7
		L255.4,50.9z"/>
</g>
</svg>
