<?xml version="1.0" encoding="utf-8"?>
<!-- Generator: Adobe Illustrator 16.0.0, SVG Export Plug-In . SVG Version: 6.00 Build 0)  -->
<!DOCTYPE svg PUBLIC "-//W3C//DTD SVG 1.1//EN" "http://www.w3.org/Graphics/SVG/1.1/DTD/svg11.dtd">
<svg version="1.1" id="Layer_1" xmlns="http://www.w3.org/2000/svg" xmlns:xlink="http://www.w3.org/1999/xlink" x="0px" y="0px"
	 width="200px" height="200px" viewBox="0 0 200 200" enable-background="new 0 0 200 200" xml:space="preserve">
<g>
	<circle fill="#84D0D2" cx="100" cy="99.388" r="85.852"/>
	<g>
		<path fill="#FFFFFF" d="M99.962,148.686c-6.651-0.119-13.303-0.18-19.95-0.369c-5.74-0.166-11.304-1.201-16.285-4.262
			c-6.527-4.009-10.515-9.897-11.785-17.382c-0.76-4.476-1.028-9.069-1.1-13.618c-0.148-9.742-0.09-19.492,0.016-29.236
			c0.058-5.17,0.228-10.359,1.951-15.33c3.303-9.528,10.01-15.312,19.807-17.194c4.449-0.854,9.066-1.044,13.613-1.114
			c9.78-0.149,19.563-0.092,29.346,0.015c5.133,0.056,10.287,0.229,15.224,1.934c9.572,3.305,15.384,10.024,17.254,19.876
			c0.845,4.451,1.038,9.067,1.107,13.615c0.147,9.744,0.09,19.492-0.015,29.236c-0.058,5.17-0.229,10.357-1.951,15.33
			c-3.303,9.527-10.008,15.312-19.808,17.194c-4.446,0.854-9.062,0.947-13.614,1.124c-4.598,0.182-9.205,0.041-13.809,0.041
			C99.963,148.592,99.962,148.639,99.962,148.686z M140.529,98.542c-0.066-0.001-0.133-0.003-0.199-0.004
			c0-3.885,0.079-7.771-0.023-11.654c-0.099-3.733-0.24-7.476-0.617-11.189c-0.847-8.324-5.801-14.063-14.004-15.616
			c-4.379-0.829-8.928-0.943-13.403-1.027c-8.198-0.153-16.401-0.133-24.601-0.006c-4.231,0.066-8.504,0.215-12.675,0.862
			c-7.12,1.104-11.983,5.189-13.95,12.25c-0.63,2.263-0.998,4.662-1.054,7.009C59.79,88.082,59.659,97,59.689,105.916
			c0.021,5.674,0.149,11.366,0.644,17.016c0.728,8.356,5.726,14.077,13.931,15.651c4.409,0.847,8.998,0.954,13.51,1.04
			c8.162,0.154,16.33,0.105,24.494,0.016c3.806-0.041,7.617-0.25,11.404-0.623c3.508-0.346,6.791-1.494,9.612-3.733
			c4.573-3.638,6.339-8.648,6.606-14.208C140.256,113.57,140.331,106.053,140.529,98.542z"/>
		<path fill="#FFFFFF" d="M99.923,124.625c-14.042-0.005-25.214-11.293-25.207-25.473c0.007-13.97,11.362-25.115,25.577-25.099
			c13.876,0.015,25.008,11.408,24.992,25.578C125.27,113.427,113.9,124.63,99.923,124.625z M100.021,115.745
			c9.004-0.021,16.399-7.435,16.383-16.429c-0.016-9.003-7.442-16.411-16.426-16.383c-9.017,0.028-16.399,7.431-16.383,16.426
			C83.611,108.361,91.034,115.764,100.021,115.745z"/>
		<path fill="#FFFFFF" d="M126.389,67.148c3.322,0.028,5.842,2.648,5.803,6.035c-0.037,3.226-2.754,5.882-5.957,5.826
			c-3.286-0.059-5.967-2.795-5.902-6.03C120.395,69.681,123.057,67.12,126.389,67.148z"/>
	</g>
</g>
</svg>
