<?xml version="1.0" encoding="utf-8"?>
<!-- Generator: Adobe Illustrator 16.0.0, SVG Export Plug-In . SVG Version: 6.00 Build 0)  -->
<!DOCTYPE svg PUBLIC "-//W3C//DTD SVG 1.1//EN" "http://www.w3.org/Graphics/SVG/1.1/DTD/svg11.dtd">
<svg version="1.1" id="Layer_1" xmlns="http://www.w3.org/2000/svg" xmlns:xlink="http://www.w3.org/1999/xlink" x="0px" y="0px"
	 width="200px" height="200px" viewBox="238 0 200 200" enable-background="new 238 0 200 200" xml:space="preserve">
<g>
	<circle fill="#84D0D2" cx="338.519" cy="99.388" r="85.851"/>
	<g>
		<path fill="#FFFFFF" d="M338.924,88.598c0,1.549,0.331,2.867-0.076,3.891c-0.608,1.527-1.56,3.799-2.695,4.018
			c-1.489,0.288-4.044-0.628-4.866-1.869c-7.444-11.243-14.678-22.628-21.726-34.124c-0.532-0.871,0.518-3.968,1.402-4.257
			c7.117-2.304,14.322-4.397,21.609-6.073c2.525-0.581,3.747,1.418,3.917,4.163C337.205,65.89,338.113,77.422,338.924,88.598z"/>
		<path fill="#FFFFFF" d="M351.89,114.342c1.444,0.424,3.295,0.921,5.116,1.516c5.329,1.74,10.652,3.5,15.964,5.293
			c3.124,1.053,4.562,3.205,2.546,6.08c-3.107,4.438-6.464,8.742-10.09,12.768c-2.051,2.273-4.496,1.818-6.218-0.955
			c-3.739-6.025-7.597-11.98-11.213-18.081C346.09,117.744,347.989,114.385,351.89,114.342z"/>
		<path fill="#FFFFFF" d="M338.352,134.354c0,3.404-0.065,6.812,0.021,10.213c0.08,3.125-1.597,4.733-4.37,3.914
			c-5.461-1.612-10.878-3.516-16.079-5.824c-2.628-1.167-2.604-3.649-0.654-5.932c4.521-5.287,8.861-10.736,13.573-15.848
			c1.054-1.141,3.607-1.938,4.965-1.46c1.316,0.465,2.611,2.699,2.804,4.29c0.416,3.504,0.129,7.092,0.129,10.646
			C338.609,134.354,338.48,134.354,338.352,134.354z"/>
		<path fill="#FFFFFF" d="M375.593,97.587c-0.607,0.501-1.672,2.022-3.049,2.398c-6.964,1.906-13.979,3.656-21.054,5.097
			c-1.363,0.277-3.675-0.658-4.432-1.783c-0.741-1.109-0.688-3.598,0.098-4.744c4.082-5.968,8.417-11.774,12.9-17.448
			c0.77-0.971,2.869-1.685,4.062-1.376C367.857,80.699,375.615,92.34,375.593,97.587z"/>
		<path fill="#FFFFFF" d="M300.591,108.902c0.444-3.077,0.654-6.211,1.4-9.213c0.745-2.998,2.532-4.502,5.962-3.032
			c6.255,2.681,12.697,4.942,18.874,7.786c1.498,0.689,3.187,3.022,3.102,4.505c-0.082,1.399-2.146,3.28-3.744,3.888
			c-5.386,2.057-10.938,3.665-16.444,5.396c-6.799,2.141-8.186,1.232-8.822-5.74c-0.105-1.178-0.018-2.371-0.018-3.559
			C300.798,108.923,300.693,108.912,300.591,108.902z"/>
	</g>
</g>
</svg>
